<?xml version="1.0" encoding="iso-8859-1"?>
<!-- Uploaded to: SVG Repo, www.svgrepo.com, Generator: SVG Repo Mixer Tools -->
<svg fill="#000000" height="800px" width="800px" version="1.1" id="Layer_1" xmlns="http://www.w3.org/2000/svg" xmlns:xlink="http://www.w3.org/1999/xlink" 
	 viewBox="0 0 512 512" xml:space="preserve">
<g>
	<g>
		<path d="M426.667,170.667c-10.119,0-19.821,1.771-28.827,5.003l-61.51-61.51c3.232-9.006,5.003-18.708,5.003-28.827
			C341.333,38.202,303.131,0,256,0s-85.333,38.202-85.333,85.333c0,10.119,1.771,19.821,5.003,28.827l-61.51,61.51
			c-9.006-3.232-18.708-5.003-28.827-5.003C38.202,170.667,0,208.869,0,256s38.202,85.333,85.333,85.333
			c10.119,0,19.821-1.771,28.827-5.003l61.51,61.51c-3.232,9.006-5.003,18.708-5.003,28.827C170.667,473.798,208.869,512,256,512
			s85.333-38.202,85.333-85.333c0-10.119-1.771-19.821-5.003-28.827l61.51-61.51c9.006,3.232,18.708,5.003,28.827,5.003
			C473.798,341.333,512,303.131,512,256S473.798,170.667,426.667,170.667z M256,341.333c-21.316,0-40.789,7.832-55.744,20.752
			l-50.341-50.341c12.92-14.955,20.752-34.428,20.752-55.744s-7.832-40.789-20.752-55.744l50.341-50.341
			c14.955,12.92,34.428,20.752,55.744,20.752s40.789-7.832,55.744-20.752l50.341,50.341c-12.92,14.955-20.752,34.428-20.752,55.744
			s7.832,40.789,20.752,55.744l-50.341,50.341C296.789,349.166,277.316,341.333,256,341.333z M256,42.667
			c23.567,0,42.667,19.099,42.667,42.667S279.567,128,256,128s-42.667-19.099-42.667-42.667S232.433,42.667,256,42.667z M42.667,256
			c0-23.567,19.099-42.667,42.667-42.667S128,232.433,128,256s-19.099,42.667-42.667,42.667S42.667,279.567,42.667,256z
			 M256,469.333c-23.567,0-42.667-19.099-42.667-42.667S232.433,384,256,384s42.667,19.099,42.667,42.667
			S279.567,469.333,256,469.333z M426.667,298.667C403.099,298.667,384,279.567,384,256s19.099-42.667,42.667-42.667
			s42.667,19.099,42.667,42.667S450.234,298.667,426.667,298.667z"/>
	</g>
</g>
</svg>