<!DOCTYPE svg PUBLIC "-//W3C//DTD SVG 1.1//EN" "http://www.w3.org/Graphics/SVG/1.1/DTD/svg11.dtd">
<!-- Uploaded to: SVG Repo, www.svgrepo.com, Transformed by: SVG Repo Mixer Tools -->
<svg fill="#000000" height="800px" width="800px" version="1.1" id="Capa_1" xmlns="http://www.w3.org/2000/svg" xmlns:xlink="http://www.w3.org/1999/xlink" viewBox="0 0 490.2 490.2" xml:space="preserve" transform="matrix(-1, 0, 0, 1, 0, 0)">
<g id="SVGRepo_bgCarrier" stroke-width="0"/>
<g id="SVGRepo_tracerCarrier" stroke-linecap="round" stroke-linejoin="round" stroke="#CCCCCC" stroke-width="0.9804"/>
<g id="SVGRepo_iconCarrier"> <g> <g> <path d="M490.2,369.2V121c0-34.2-27.9-62.1-62.1-62.1H227.5c-34.2,0-62.1,27.9-62.1,62.1v40.2c0,6.8,5.5,12.3,12.3,12.3 S190,168,190,161.2V121c0-20.7,16.9-37.6,37.6-37.6h200.5c20.7,0,37.6,16.9,37.6,37.6v248.2c0,20.7-16.9,37.6-37.6,37.6H227.5 c-20.7,0-37.6-16.9-37.6-37.6V329c0-6.8-5.5-12.3-12.3-12.3s-12.3,5.5-12.3,12.3v40.2c0,34.2,27.9,62.1,62.1,62.1h200.7 C462.3,431.3,490.2,403.5,490.2,369.2z"/> <path d="M3.6,253.8l83.9,83.9c2.4,2.4,5.5,3.6,8.7,3.6s6.3-1.2,8.7-3.6c4.8-4.8,4.8-12.5,0-17.3l-63-63h229.8 c6.8,0,12.3-5.5,12.3-12.3s-5.5-12.3-12.3-12.3H41.8l63-63c4.8-4.8,4.8-12.5,0-17.3s-12.5-4.8-17.3,0L3.6,236.4 C-1.2,241.2-1.2,249,3.6,253.8z"/> </g> </g> </g>
</svg>